<?xml version="1.0" encoding="UTF-8"?>
<svg version="1.1" xmlns="http://www.w3.org/2000/svg" width="480" height="96">
<path d="M0 0 C14 0 14 0 17.23828125 3.0078125 C18.33056641 4.98046875 18.33056641 4.98046875 19.3125 7.125 C20.0958154 8.58692534 20.88101423 10.04784288 21.66796875 11.5078125 C22.23717041 12.62591309 22.23717041 12.62591309 22.81787109 13.76660156 C24.69970367 17.3219515 26.91231992 20.6447562 29.125 24 C30.40375 25.98 31.6825 27.96 33 30 C33.33 20.1 33.66 10.2 34 0 C38.62 0 43.24 0 48 0 C48 18.15 48 36.3 48 55 C43.38 55 38.76 55 34 55 C30.38726207 51.16324077 28.3720663 48.48745367 25.9375 44 C25.32712891 42.97003906 24.71675781 41.94007812 24.08789062 40.87890625 C22.94270765 38.93938384 21.81802876 36.98747825 20.72241211 35.01953125 C18.59049512 31.28210399 16.28043908 27.64870254 14 24 C13.67 34.23 13.34 44.46 13 55 C8.71 55 4.42 55 0 55 C0 36.85 0 18.7 0 0 Z " fill="#202020" transform="translate(350,22)"/>
<path d="M0 0 C7.21790536 4.92319556 12.08211974 10.76303862 14.02734375 19.3828125 C15.17831381 29.13009016 13.73240706 37.74177032 7.77734375 45.6953125 C0.44203482 52.86390986 -5.97555142 54.71747255 -16.11303711 54.76782227 C-23.29011244 54.60732922 -28.36664761 52.46473745 -33.7734375 47.84375 C-39.65165055 41.68840035 -42.17591635 34.29044304 -42.47265625 25.8828125 C-42.15695604 17.48716014 -40.01496855 11.21796835 -34.28515625 5.0078125 C-24.92560077 -3.47589467 -11.56150355 -6.1575233 0 0 Z M-23.97265625 13.3828125 C-27.53248373 19.26886388 -29.06285625 24.60755631 -27.5 31.453125 C-26.36451656 35.1383467 -25.20731975 37.1538725 -22.41015625 39.8828125 C-16.92643439 42.27570931 -11.77653329 42.29712023 -6.09765625 40.4453125 C-1.9793924 36.44817405 -0.27315614 31.48631176 0.52734375 25.8828125 C-0.27315614 20.27931324 -1.9793924 15.31745095 -6.09765625 11.3203125 C-11.97350253 9.40427567 -19.29186505 8.83969163 -23.97265625 13.3828125 Z " fill="#202020" transform="translate(330.97265625,23.6171875)"/>
<path d="M0 0 C3.59375 2.5515625 3.59375 2.5515625 4.953125 4.38671875 C4.7868814 8.00071002 2.93158647 9.73435518 0.390625 12.13671875 C-0.57037109 13.05710937 -0.57037109 13.05710937 -1.55078125 13.99609375 C-2.04449219 14.455 -2.53820312 14.91390625 -3.046875 15.38671875 C-4.54427083 14.1171875 -6.04166667 12.84765625 -7.5390625 11.578125 C-10.83202716 8.97617106 -13.72251597 9.04794493 -17.79296875 9.11328125 C-21.26986273 9.53508815 -22.76934093 10.7742532 -25.046875 13.38671875 C-28.04520997 18.65965267 -28.96444248 23.44292051 -28.046875 29.38671875 C-26.70559256 33.53315639 -25.04110538 36.52684383 -21.734375 39.38671875 C-17.28266974 41.04316722 -13.69981701 41.0629223 -9.296875 39.26171875 C-6.54058438 36.9648099 -5.43083367 34.6645156 -4.046875 31.38671875 C-8.336875 31.38671875 -12.626875 31.38671875 -17.046875 31.38671875 C-17.046875 28.08671875 -17.046875 24.78671875 -17.046875 21.38671875 C-8.136875 21.38671875 0.773125 21.38671875 9.953125 21.38671875 C9.953125 38.99962198 9.953125 38.99962198 3.89453125 45.64453125 C-3.39277697 52.50172853 -9.58209792 53.93554774 -19.50390625 53.7578125 C-26.80930993 52.99263791 -31.98614007 49.8536044 -36.984375 44.57421875 C-43.61819867 36.12548106 -43.86190541 27.98211409 -43.046875 17.38671875 C-41.77466809 9.6287511 -36.26246532 3.4638522 -30.05078125 -1.0703125 C-20.7158514 -6.06423527 -8.99804512 -5.09583167 0 0 Z " fill="#212121" transform="translate(277.046875,24.61328125)"/>
<path d="M0 0 C2.49984973 1.83885566 4.314562 3.81986427 5.96484375 6.4453125 C3.32484375 9.4153125 0.68484375 12.3853125 -2.03515625 15.4453125 C-3.5 14.17578125 -4.96484375 12.90625 -6.4296875 11.63671875 C-10.17220453 8.85942509 -14.57491253 8.96524713 -19.03515625 9.4453125 C-23.23970625 11.22056695 -25.05008111 13.37590847 -27.03515625 17.4453125 C-28.83028761 22.34112529 -28.65937926 27.4382638 -26.59765625 32.1953125 C-26.08203125 33.2678125 -25.56640625 34.3403125 -25.03515625 35.4453125 C-24.70515625 36.4353125 -24.37515625 37.4253125 -24.03515625 38.4453125 C-19.91786281 40.81587539 -15.66203408 41.03537992 -11.03515625 40.4453125 C-8.10613322 39.48863217 -8.10613322 39.48863217 -6.03515625 37.4453125 C-4.67534744 34.36970004 -4.67534744 34.36970004 -4.03515625 31.4453125 C-7.99515625 31.4453125 -11.95515625 31.4453125 -16.03515625 31.4453125 C-16.03515625 28.1453125 -16.03515625 24.8453125 -16.03515625 21.4453125 C-7.45515625 21.4453125 1.12484375 21.4453125 9.96484375 21.4453125 C10.41563157 30.64138408 10.71580913 37.90669764 4.96484375 45.4453125 C-1.02831554 51.35232782 -7.3718059 53.7210173 -15.78515625 53.8828125 C-23.70264577 53.73263883 -29.4226889 52.04409626 -35.09765625 46.390625 C-41.56820975 38.59900016 -43.65940575 31.80107577 -43.37890625 21.69140625 C-42.46711659 13.08121068 -38.56461587 6.10157093 -32.03515625 0.4453125 C-22.83616926 -6.1600453 -9.51561485 -5.54153943 0 0 Z " fill="#1F1F1F" transform="translate(203.03515625,24.5546875)"/>
<path d="M0 0 C25 0 25 0 32 4 C35.30898069 8.69661775 35.52885803 12.44699067 35 18 C33.6038245 20.91927604 32.27797004 22.72202996 30 25 C30.928125 25.5775 31.85625 26.155 32.8125 26.75 C36.71697689 29.50610134 38.4982421 31.49472629 40 36 C40.49574652 41.05661453 39.65243868 44.56783615 37.65625 49.10546875 C34.05265328 53.22750745 30.04354975 54.80335251 24.72460938 55.31518555 C20.97273684 55.39313933 17.25173762 55.34836342 13.5 55.25 C9.045 55.1675 4.59 55.085 0 55 C0 36.85 0 18.7 0 0 Z M13 10 C13 13.63 13 17.26 13 21 C18.01535052 20.67039784 18.01535052 20.67039784 22 18 C22.50014953 15.54258463 22.50014953 15.54258463 22 13 C20.38442803 11.05893971 20.38442803 11.05893971 18 10 C16.35 10 14.7 10 13 10 Z M13 33 C13 36.96 13 40.92 13 45 C19.42418376 45.53165635 19.42418376 45.53165635 25 43 C26.17110449 40.1403994 26.17110449 40.1403994 26 37 C24.75609295 34.42044581 24.75609295 34.42044581 22 33 C18.91759523 32.67163386 16.11650043 32.81667645 13 33 Z " fill="#1D1D1D" transform="translate(118,22)"/>
<path d="M0 0 C2.62573061 0.64297504 5.25057303 1.28924411 7.875 1.9375 C8.99455078 2.21110352 8.99455078 2.21110352 10.13671875 2.49023438 C15.7734375 3.88671875 15.7734375 3.88671875 18 5 C17.34 6.98 16.68 8.96 16 11 C20.29 15.29 24.58 19.58 29 24 C34.29012124 19.59156563 39.18808428 14.92440206 44 10 C43.01 8.35 42.02 6.7 41 5 C43.7907207 4.16338138 46.58248012 3.33057263 49.375 2.5 C50.1690625 2.26152344 50.963125 2.02304687 51.78125 1.77734375 C52.54179688 1.55175781 53.30234375 1.32617188 54.0859375 1.09375 C54.7876709 0.88427734 55.4894043 0.67480469 56.21240234 0.45898438 C58 0 58 0 60 0 C58.9559635 6.68183363 57.5957524 12.7465965 55 19 C53.35 18.01 51.7 17.02 50 16 C45.38 20.62 40.76 25.24 36 30 C41.04413355 35.89421783 41.04413355 35.89421783 46.375 41.4375 C47.06335938 42.11683594 47.75171875 42.79617187 48.4609375 43.49609375 C48.96882813 43.99238281 49.47671875 44.48867188 50 45 C51.65 44.01 53.3 43.02 55 42 C57.5957524 48.2534035 58.9559635 54.31816637 60 61 C53.45150687 59.83795007 47.25461856 58.26616615 41 56 C41.99 54.35 42.98 52.7 44 51 C39.38 46.38 34.76 41.76 30 37 C24.35824453 41.80106033 24.35824453 41.80106033 19.0625 46.875 C18.47597656 47.47054687 17.88945313 48.06609375 17.28515625 48.6796875 C16.86105469 49.11539063 16.43695313 49.55109375 16 50 C16.66 51.98 17.32 53.96 18 56 C12.06338584 58.41862058 6.31121503 59.9007105 0 61 C0.53951066 54.31006781 1.88706171 48.36539272 4 42 C5.98 42.66 7.96 43.32 10 44 C14.29 39.71 18.58 35.42 23 31 C18.88380164 26.08064098 14.59589638 21.47352044 10 17 C8.02 17.66 6.04 18.32 4 19 C3.32506659 16.77332235 2.66036956 14.54354023 2 12.3125 C1.62875 11.07113281 1.2575 9.82976563 0.875 8.55078125 C0.12296543 5.4989981 -0.19034899 3.11101638 0 0 Z " fill="#1D1D1D" transform="translate(31,19)"/>
<path d="M0 0 C10.56 0 21.12 0 32 0 C32 3.63 32 7.26 32 11 C25.73 11 19.46 11 13 11 C13 14.63 13 18.26 13 22 C18.94 22 24.88 22 31 22 C31 25.63 31 29.26 31 33 C25.06 33 19.12 33 13 33 C13 36.63 13 40.26 13 44 C19.27 44 25.54 44 32 44 C32 47.63 32 51.26 32 55 C21.44 55 10.88 55 0 55 C0 36.85 0 18.7 0 0 Z " fill="#161616" transform="translate(405,22)"/>
<path d="M0 0 C0.66 0.33 1.32 0.66 2 1 C-1.3 4.3 -4.6 7.6 -8 11 C-8 7.45459812 -7.40614728 6.93992636 -5.125 4.375 C-4.59132812 3.76398437 -4.05765625 3.15296875 -3.5078125 2.5234375 C-2 1 -2 1 0 0 Z " fill="#555555" transform="translate(173,24)"/>
</svg>
